<svg width="871" height="841" viewBox="0 0 871 841" fill="none" xmlns="http://www.w3.org/2000/svg">
<path d="M169.383 746.062L464.447 746.355L539.779 652.968L214.103 652.702L29.941 422.4L0 538.18L169.383 746.062Z" fill="url(#paint0_linear_241_24)"/>
<path d="M240.483 840.669L509.168 841L695.418 610.359L667.893 491.427L464.447 746.355L169.383 746.062L240.483 840.669Z" fill="url(#paint1_linear_241_24)"/>
<path d="M509.168 841H629.253L795.315 629.587L728.48 343.814L621.636 291.325L695.418 610.359L509.168 841Z" fill="url(#paint2_linear_241_24)"/>
<path d="M795.315 629.587L871 537.043L807.621 278.727L542.543 152.38L438.566 201.26L728.48 343.814L795.315 629.587Z" fill="url(#paint3_linear_241_24)"/>
<path d="M807.621 278.727L782.949 162.912L542.177 50.4259L276.564 177.281L250.33 290.119L542.543 152.38L807.621 278.727Z" fill="url(#paint4_linear_241_24)"/>
<path d="M542.177 50.4259L435.17 0L196.573 115.639L127.73 399.247L203.187 492.887L276.564 177.281L542.177 50.4259Z" fill="url(#paint5_linear_241_24)"/>
<path d="M196.573 115.639L90.7467 164.705L29.9409 422.4L214.103 652.702L331.644 652.968L127.73 399.247L196.573 115.639Z" fill="url(#paint6_linear_241_24)"/>
<path d="M316.42 494.9C307.579 494.9 299.33 493.446 291.674 490.538C284.126 487.63 277.549 483.537 271.942 478.26C266.443 472.983 262.13 466.79 259.003 459.681C255.984 452.573 254.474 444.819 254.474 436.418C254.474 428.017 255.984 420.263 259.003 413.154C262.13 406.046 266.497 399.853 272.104 394.576C277.711 389.299 284.288 385.206 291.836 382.298C299.384 379.39 307.579 377.936 316.42 377.936C325.37 377.936 333.565 379.39 341.005 382.298C348.553 385.206 355.076 389.299 360.575 394.576C366.182 399.746 370.549 405.885 373.676 412.993C376.804 420.101 378.367 427.91 378.367 436.418C378.367 444.819 376.804 452.627 373.676 459.843C370.549 466.951 366.182 473.144 360.575 478.421C355.076 483.591 348.553 487.63 341.005 490.538C333.565 493.446 325.37 494.9 316.42 494.9V494.9ZM353.459 518.971C349.038 518.971 344.833 518.486 340.843 517.517C336.961 516.547 333.08 514.986 329.198 512.832C325.424 510.678 321.434 507.77 317.229 504.108C313.132 500.446 308.657 495.923 303.805 490.538L331.301 483.591C334.212 487.576 336.907 490.753 339.388 493.122C341.868 495.492 344.24 497.161 346.504 498.131C348.876 499.1 351.356 499.585 353.944 499.585C360.845 499.585 366.991 496.784 372.382 491.184L384.028 505.077C376.372 514.34 366.182 518.971 353.459 518.971V518.971ZM316.42 472.605C321.488 472.605 326.125 471.744 330.33 470.021C334.643 468.298 338.417 465.82 341.652 462.589C344.887 459.358 347.367 455.535 349.092 451.119C350.925 446.596 351.841 441.695 351.841 436.418C351.841 431.033 350.925 426.132 349.092 421.717C347.367 417.301 344.887 413.478 341.652 410.246C338.417 407.015 334.643 404.538 330.33 402.815C326.125 401.092 321.488 400.23 316.42 400.23C311.352 400.23 306.662 401.092 302.349 402.815C298.036 404.538 294.262 407.015 291.027 410.246C287.9 413.478 285.42 417.301 283.587 421.717C281.862 426.132 280.999 431.033 280.999 436.418C280.999 441.695 281.862 446.596 283.587 451.119C285.42 455.535 287.9 459.358 291.027 462.589C294.262 465.82 298.036 468.298 302.349 470.021C306.662 471.744 311.352 472.605 316.42 472.605V472.605ZM452.241 494.9C443.508 494.9 435.366 493.5 427.819 490.699C420.379 487.791 413.909 483.698 408.41 478.421C402.911 473.144 398.598 466.951 395.471 459.843C392.452 452.735 390.942 444.926 390.942 436.418C390.942 427.91 392.452 420.101 395.471 412.993C398.598 405.885 402.911 399.692 408.41 394.414C414.017 389.137 420.54 385.098 427.98 382.298C435.421 379.39 443.562 377.936 452.403 377.936C462.215 377.936 471.057 379.659 478.929 383.106C486.908 386.445 493.593 391.399 498.984 397.969L482.163 413.478C478.282 409.062 473.969 405.777 469.224 403.623C464.48 401.361 459.304 400.23 453.697 400.23C448.414 400.23 443.562 401.092 439.141 402.815C434.719 404.538 430.892 407.015 427.657 410.246C424.422 413.478 421.888 417.301 420.055 421.717C418.33 426.132 417.467 431.033 417.467 436.418C417.467 441.803 418.33 446.703 420.055 451.119C421.888 455.535 424.422 459.358 427.657 462.589C430.892 465.82 434.719 468.298 439.141 470.021C443.562 471.744 448.414 472.605 453.697 472.605C459.304 472.605 464.48 471.529 469.224 469.374C473.969 467.113 478.282 463.72 482.163 459.197L498.984 474.706C493.593 481.275 486.908 486.283 478.929 489.73C471.057 493.176 462.162 494.9 452.241 494.9V494.9ZM568.492 494.9C559.758 494.9 551.617 493.5 544.069 490.699C536.629 487.791 530.16 483.698 524.66 478.421C519.161 473.144 514.848 466.951 511.721 459.843C508.702 452.735 507.193 444.926 507.193 436.418C507.193 427.91 508.702 420.101 511.721 412.993C514.848 405.885 519.161 399.692 524.66 394.414C530.267 389.137 536.791 385.098 544.231 382.298C551.671 379.39 559.812 377.936 568.654 377.936C578.466 377.936 587.308 379.659 595.179 383.106C603.158 386.445 609.843 391.399 615.235 397.969L598.414 413.478C594.532 409.062 590.219 405.777 585.475 403.623C580.73 401.361 575.554 400.23 569.948 400.23C564.664 400.23 559.812 401.092 555.391 402.815C550.97 404.538 547.142 407.015 543.908 410.246C540.673 413.478 538.139 417.301 536.306 421.717C534.581 426.132 533.718 431.033 533.718 436.418C533.718 441.803 534.581 446.703 536.306 451.119C538.139 455.535 540.673 459.358 543.908 462.589C547.142 465.82 550.97 468.298 555.391 470.021C559.812 471.744 564.664 472.605 569.948 472.605C575.554 472.605 580.73 471.529 585.475 469.374C590.219 467.113 594.532 463.72 598.414 459.197L615.235 474.706C609.843 481.275 603.158 486.283 595.179 489.73C587.308 493.176 578.412 494.9 568.492 494.9V494.9Z" fill="url(#paint7_linear_241_24)"/>
<defs>
<linearGradient id="paint0_linear_241_24" x1="499.947" y1="701.374" x2="13.823" y2="482.843" gradientUnits="userSpaceOnUse">
<stop stop-color="#C955FF"/>
<stop offset="0.5" stop-color="#55E0FF"/>
<stop offset="1" stop-color="#FFE247"/>
</linearGradient>
<linearGradient id="paint1_linear_241_24" x1="681.563" y1="550.958" x2="203.585" y2="790.677" gradientUnits="userSpaceOnUse">
<stop stop-color="#C955FF"/>
<stop offset="0.5" stop-color="#55E0FF"/>
<stop offset="1" stop-color="#FFE247"/>
</linearGradient>
<linearGradient id="paint2_linear_241_24" x1="675.071" y1="317.741" x2="567.71" y2="838.619" gradientUnits="userSpaceOnUse">
<stop stop-color="#C955FF"/>
<stop offset="0.5" stop-color="#55E0FF"/>
<stop offset="1" stop-color="#FFE247"/>
</linearGradient>
<linearGradient id="paint3_linear_241_24" x1="490.736" y1="176.973" x2="835.943" y2="580.935" gradientUnits="userSpaceOnUse">
<stop stop-color="#C955FF"/>
<stop offset="0.5" stop-color="#55E0FF"/>
<stop offset="1" stop-color="#FFE247"/>
</linearGradient>
<linearGradient id="paint4_linear_241_24" x1="248.805" y1="170.447" x2="807.621" y2="170.447" gradientUnits="userSpaceOnUse">
<stop stop-color="#C955FF"/>
<stop offset="0.5" stop-color="#55E0FF"/>
<stop offset="1" stop-color="#FFE247"/>
</linearGradient>
<linearGradient id="paint5_linear_241_24" x1="165.458" y1="446.067" x2="491.505" y2="27.4183" gradientUnits="userSpaceOnUse">
<stop stop-color="#C955FF"/>
<stop offset="0.5" stop-color="#55E0FF"/>
<stop offset="1" stop-color="#FFE247"/>
</linearGradient>
<linearGradient id="paint6_linear_241_24" x1="273.296" y1="653.025" x2="141.948" y2="140.611" gradientUnits="userSpaceOnUse">
<stop stop-color="#C955FF"/>
<stop offset="0.5" stop-color="#55E0FF"/>
<stop offset="1" stop-color="#FFE247"/>
</linearGradient>
<linearGradient id="paint7_linear_241_24" x1="346.125" y1="465.455" x2="392.586" y2="322.376" gradientUnits="userSpaceOnUse">
<stop stop-color="#CA59FF"/>
<stop offset="0.515625" stop-color="#00D1FF"/>
<stop offset="1" stop-color="#FFD260"/>
</linearGradient>
</defs>
</svg>
